<svg width="454" height="471" viewBox="0 0 454 471" fill="none" xmlns="http://www.w3.org/2000/svg">
<path d="M369 190C369 222.621 357.689 254.233 336.995 279.45C316.3 304.666 287.502 321.927 255.508 328.291C223.513 334.655 190.302 329.729 161.533 314.351C132.764 298.974 110.217 274.097 97.733 243.959C85.2495 213.821 83.602 180.287 93.0714 149.07C102.541 117.854 122.541 90.8863 149.665 72.763C176.788 54.6397 209.356 46.4818 241.82 49.6792C274.284 52.8766 304.635 67.2316 327.702 90.2981L294.608 123.393C279.198 107.982 258.921 98.3924 237.233 96.2563C215.545 94.1202 193.787 99.5703 175.667 111.678C157.546 123.785 144.185 141.801 137.859 162.656C131.532 183.511 132.633 205.914 140.973 226.048C149.313 246.182 164.376 262.802 183.596 273.075C202.815 283.348 225.003 286.639 246.377 282.388C267.751 278.136 286.99 266.605 300.816 249.758C304.668 245.065 310 235.5 310 235.5H291.5C279.428 224.385 261.094 204.387 248.5 191.5L369 190Z" fill="black"/>
<path d="M59.988 389.908C62.4267 389.908 64.5553 390.404 66.374 391.396C68.234 392.388 69.66 393.69 70.652 395.302V390.404H81.254V424.938C81.254 428.121 80.6133 430.993 79.332 433.556C78.092 436.16 76.17 438.227 73.566 439.756C71.0033 441.285 67.8 442.05 63.956 442.05C58.8307 442.05 54.6767 440.831 51.494 438.392C48.3113 435.995 46.4927 432.729 46.038 428.596H56.516C56.8467 429.919 57.632 430.952 58.872 431.696C60.112 432.481 61.6413 432.874 63.46 432.874C65.6507 432.874 67.3867 432.233 68.668 430.952C69.9907 429.712 70.652 427.707 70.652 424.938V420.04C69.6187 421.652 68.1927 422.975 66.374 424.008C64.5553 425 62.4267 425.496 59.988 425.496C57.136 425.496 54.5527 424.773 52.238 423.326C49.9233 421.838 48.084 419.751 46.72 417.064C45.3973 414.336 44.736 411.195 44.736 407.64C44.736 404.085 45.3973 400.965 46.72 398.278C48.084 395.591 49.9233 393.525 52.238 392.078C54.5527 390.631 57.136 389.908 59.988 389.908ZM70.652 407.702C70.652 405.057 69.908 402.969 68.42 401.44C66.9733 399.911 65.196 399.146 63.088 399.146C60.98 399.146 59.182 399.911 57.694 401.44C56.2473 402.928 55.524 404.995 55.524 407.64C55.524 410.285 56.2473 412.393 57.694 413.964C59.182 415.493 60.98 416.258 63.088 416.258C65.196 416.258 66.9733 415.493 68.42 413.964C69.908 412.435 70.652 410.347 70.652 407.702ZM99.5261 396.17C100.766 394.269 102.316 392.781 104.176 391.706C106.036 390.59 108.103 390.032 110.376 390.032V401.254H107.462C104.817 401.254 102.833 401.833 101.51 402.99C100.187 404.106 99.5261 406.09 99.5261 408.942V425H88.9241V390.404H99.5261V396.17ZM148.056 407.144C148.056 408.136 147.994 409.169 147.87 410.244H123.876C124.041 412.393 124.723 414.047 125.922 415.204C127.162 416.32 128.67 416.878 130.448 416.878C133.093 416.878 134.932 415.762 135.966 413.53H147.25C146.671 415.803 145.617 417.849 144.088 419.668C142.6 421.487 140.719 422.913 138.446 423.946C136.172 424.979 133.63 425.496 130.82 425.496C127.43 425.496 124.413 424.773 121.768 423.326C119.122 421.879 117.056 419.813 115.568 417.126C114.08 414.439 113.336 411.298 113.336 407.702C113.336 404.106 114.059 400.965 115.506 398.278C116.994 395.591 119.06 393.525 121.706 392.078C124.351 390.631 127.389 389.908 130.82 389.908C134.168 389.908 137.144 390.611 139.748 392.016C142.352 393.421 144.377 395.426 145.824 398.03C147.312 400.634 148.056 403.672 148.056 407.144ZM137.206 404.354C137.206 402.535 136.586 401.089 135.346 400.014C134.106 398.939 132.556 398.402 130.696 398.402C128.918 398.402 127.41 398.919 126.17 399.952C124.971 400.985 124.227 402.453 123.938 404.354H137.206ZM186.261 407.144C186.261 408.136 186.199 409.169 186.075 410.244H162.081C162.246 412.393 162.928 414.047 164.127 415.204C165.367 416.32 166.875 416.878 168.653 416.878C171.298 416.878 173.137 415.762 174.171 413.53H185.455C184.876 415.803 183.822 417.849 182.293 419.668C180.805 421.487 178.924 422.913 176.651 423.946C174.377 424.979 171.835 425.496 169.025 425.496C165.635 425.496 162.618 424.773 159.973 423.326C157.327 421.879 155.261 419.813 153.773 417.126C152.285 414.439 151.541 411.298 151.541 407.702C151.541 404.106 152.264 400.965 153.711 398.278C155.199 395.591 157.265 393.525 159.911 392.078C162.556 390.631 165.594 389.908 169.025 389.908C172.373 389.908 175.349 390.611 177.953 392.016C180.557 393.421 182.582 395.426 184.029 398.03C185.517 400.634 186.261 403.672 186.261 407.144ZM175.411 404.354C175.411 402.535 174.791 401.089 173.551 400.014C172.311 398.939 170.761 398.402 168.901 398.402C167.123 398.402 165.615 398.919 164.375 399.952C163.176 400.985 162.432 402.453 162.143 404.354H175.411ZM212.934 390.032C216.984 390.032 220.208 391.355 222.606 394C225.044 396.604 226.264 400.2 226.264 404.788V425H215.724V406.214C215.724 403.899 215.124 402.101 213.926 400.82C212.727 399.539 211.115 398.898 209.09 398.898C207.064 398.898 205.452 399.539 204.254 400.82C203.055 402.101 202.456 403.899 202.456 406.214V425H191.854V390.404H202.456V394.992C203.53 393.463 204.977 392.264 206.796 391.396C208.614 390.487 210.66 390.032 212.934 390.032ZM268.036 390.032C272.004 390.032 275.186 391.355 277.584 394C279.981 396.604 281.18 400.2 281.18 404.788V425H270.64V406.214C270.64 403.899 270.04 402.101 268.842 400.82C267.643 399.539 266.031 398.898 264.006 398.898C261.98 398.898 260.368 399.539 259.17 400.82C257.971 402.101 257.372 403.899 257.372 406.214V425H246.77V379.12H257.372V395.054C258.446 393.525 259.914 392.305 261.774 391.396C263.634 390.487 265.721 390.032 268.036 390.032ZM286.439 407.64C286.439 404.085 287.1 400.965 288.423 398.278C289.787 395.591 291.626 393.525 293.941 392.078C296.256 390.631 298.839 389.908 301.691 389.908C304.13 389.908 306.258 390.404 308.077 391.396C309.937 392.388 311.363 393.69 312.355 395.302V390.404H322.957V425H312.355V420.102C311.322 421.714 309.875 423.016 308.015 424.008C306.196 425 304.068 425.496 301.629 425.496C298.818 425.496 296.256 424.773 293.941 423.326C291.626 421.838 289.787 419.751 288.423 417.064C287.1 414.336 286.439 411.195 286.439 407.64ZM312.355 407.702C312.355 405.057 311.611 402.969 310.123 401.44C308.676 399.911 306.899 399.146 304.791 399.146C302.683 399.146 300.885 399.911 299.397 401.44C297.95 402.928 297.227 404.995 297.227 407.64C297.227 410.285 297.95 412.393 299.397 413.964C300.885 415.493 302.683 416.258 304.791 416.258C306.899 416.258 308.676 415.493 310.123 413.964C311.611 412.435 312.355 410.347 312.355 407.702ZM341.229 395.302C342.221 393.69 343.647 392.388 345.507 391.396C347.367 390.404 349.496 389.908 351.893 389.908C354.745 389.908 357.329 390.631 359.643 392.078C361.958 393.525 363.777 395.591 365.099 398.278C366.463 400.965 367.145 404.085 367.145 407.64C367.145 411.195 366.463 414.336 365.099 417.064C363.777 419.751 361.958 421.838 359.643 423.326C357.329 424.773 354.745 425.496 351.893 425.496C349.455 425.496 347.326 425.021 345.507 424.07C343.689 423.078 342.263 421.776 341.229 420.164V425H330.627V379.12H341.229V395.302ZM356.357 407.64C356.357 404.995 355.613 402.928 354.125 401.44C352.679 399.911 350.881 399.146 348.731 399.146C346.623 399.146 344.825 399.911 343.337 401.44C341.891 402.969 341.167 405.057 341.167 407.702C341.167 410.347 341.891 412.435 343.337 413.964C344.825 415.493 346.623 416.258 348.731 416.258C350.839 416.258 352.637 415.493 354.125 413.964C355.613 412.393 356.357 410.285 356.357 407.64ZM378.039 386.808C376.179 386.808 374.65 386.271 373.451 385.196C372.294 384.08 371.715 382.716 371.715 381.104C371.715 379.451 372.294 378.087 373.451 377.012C374.65 375.896 376.179 375.338 378.039 375.338C379.858 375.338 381.346 375.896 382.503 377.012C383.702 378.087 384.301 379.451 384.301 381.104C384.301 382.716 383.702 384.08 382.503 385.196C381.346 386.271 379.858 386.808 378.039 386.808ZM383.309 390.404V425H372.707V390.404H383.309ZM410.274 416.01V425H404.88C401.036 425 398.04 424.07 395.89 422.21C393.741 420.309 392.666 417.229 392.666 412.972V399.208H388.45V390.404H392.666V381.972H403.268V390.404H410.212V399.208H403.268V413.096C403.268 414.129 403.516 414.873 404.012 415.328C404.508 415.783 405.335 416.01 406.492 416.01H410.274Z" fill="black"/>
</svg>
